<svg 
 xmlns="http://www.w3.org/2000/svg"
 xmlns:xlink="http://www.w3.org/1999/xlink"
 width="32px" height="32px">
<path fill-rule="evenodd"  fill="rgb(255, 255, 255)"
 d="M12.522,19.478 L12.522,16.000 C12.522,15.615 12.832,15.304 13.217,15.304 L17.391,15.304 C17.776,15.304 18.087,14.993 18.087,14.608 L18.087,13.913 C18.087,13.528 17.776,13.217 17.391,13.217 L11.826,13.217 C11.058,13.217 10.435,13.841 10.435,14.608 L10.435,20.870 C10.435,21.637 11.058,22.261 11.826,22.261 L16.696,22.261 C17.463,22.261 18.087,21.637 18.087,20.870 L18.087,20.174 L13.217,20.174 C12.832,20.174 12.522,19.862 12.522,19.478 ZM20.174,9.739 L15.304,9.739 C14.536,9.739 13.913,10.362 13.913,11.130 L13.913,11.826 L18.783,11.826 C19.167,11.826 19.478,12.137 19.478,12.521 L19.478,16.000 C19.478,16.384 19.167,16.695 18.783,16.695 L14.609,16.695 C14.224,16.695 13.913,16.384 13.913,16.000 L13.913,18.086 C13.913,18.471 14.224,18.782 14.609,18.782 L20.174,18.782 C20.941,18.782 21.565,18.159 21.565,17.391 L21.565,11.130 C21.565,10.362 20.941,9.739 20.174,9.739 ZM16.000,-0.000 C7.164,-0.000 -0.000,7.164 -0.000,16.000 C-0.000,24.836 7.164,32.000 16.000,32.000 C24.836,32.000 32.000,24.836 32.000,16.000 C32.000,7.164 24.836,-0.000 16.000,-0.000 ZM16.000,29.217 C8.700,29.217 2.783,23.300 2.783,16.000 C2.783,8.700 8.700,2.783 16.000,2.783 C23.300,2.783 29.217,8.700 29.217,16.000 C29.217,23.300 23.300,29.217 16.000,29.217 Z"/>
</svg>