<svg 
 xmlns="http://www.w3.org/2000/svg"
 xmlns:xlink="http://www.w3.org/1999/xlink"
 width="170px" height="120px">
<path fill-rule="evenodd"  fill="rgb(34, 34, 34)"
 d="M162.904,119.999 L7.096,119.999 C5.208,119.999 3.427,119.270 2.081,117.944 C0.739,116.623 -0.000,114.884 -0.000,113.046 L-0.000,7.209 C-0.000,5.263 0.737,3.446 2.075,2.092 C3.410,0.743 5.193,-0.001 7.096,-0.001 L162.583,-0.001 C164.657,-0.001 166.558,0.805 167.934,2.267 C169.266,3.684 170.000,5.586 170.000,7.621 L170.000,112.368 C170.000,116.576 166.817,119.999 162.904,119.999 ZM169.460,7.621 C169.460,3.773 166.632,0.538 162.583,0.538 L7.096,0.538 C3.475,0.538 0.539,3.467 0.539,7.209 L0.539,113.046 C0.539,116.532 3.475,119.461 7.096,119.461 L162.904,119.461 C166.525,119.461 169.460,116.280 169.460,112.368 L169.460,7.621 ZM162.904,118.648 L7.096,118.648 C5.565,118.648 4.121,118.056 3.028,116.981 C1.946,115.915 1.349,114.516 1.349,113.042 L1.349,7.205 C1.349,5.616 1.948,4.134 3.036,3.034 C4.115,1.943 5.556,1.342 7.096,1.342 L162.583,1.342 C164.281,1.342 165.832,1.997 166.950,3.185 C168.047,4.351 168.651,5.925 168.651,7.617 L168.651,112.364 C168.651,115.829 166.073,118.648 162.904,118.648 ZM168.111,7.617 C168.111,6.063 167.559,4.620 166.556,3.554 C165.541,2.475 164.130,1.881 162.583,1.881 L7.096,1.881 C5.702,1.881 4.397,2.425 3.420,3.412 C2.433,4.411 1.889,5.758 1.889,7.205 L1.889,113.042 C1.889,114.371 2.428,115.633 3.407,116.598 C4.398,117.573 5.708,118.110 7.096,118.110 L162.904,118.110 C165.775,118.110 168.111,115.532 168.111,112.364 L168.111,7.617 ZM162.272,64.106 C162.239,64.107 162.207,64.108 162.175,64.108 C159.939,64.108 158.126,62.300 158.126,60.068 C158.126,57.837 159.939,56.028 162.175,56.028 C164.411,56.028 166.224,57.837 166.224,60.068 C166.224,62.267 164.463,64.055 162.272,64.106 ZM165.684,60.068 C165.684,58.137 164.109,56.566 162.175,56.566 C160.240,56.566 158.666,58.137 158.666,60.068 C158.666,61.999 160.240,63.570 162.175,63.570 C162.190,63.570 162.206,63.569 162.222,63.569 L162.258,63.568 C163.178,63.546 164.039,63.173 164.683,62.515 C165.328,61.858 165.684,60.989 165.684,60.068 ZM162.974,61.548 L161.375,61.548 C160.997,61.548 160.690,61.242 160.690,60.865 L160.690,59.269 C160.690,58.892 160.997,58.585 161.375,58.585 L162.974,58.585 C163.352,58.585 163.659,58.892 163.659,59.269 L163.659,60.865 C163.659,61.242 163.352,61.548 162.974,61.548 ZM163.119,59.269 C163.119,59.189 163.054,59.124 162.974,59.124 L161.375,59.124 C161.295,59.124 161.230,59.189 161.230,59.269 L161.230,60.865 C161.230,60.945 161.295,61.010 161.375,61.010 L162.974,61.010 C163.054,61.010 163.119,60.945 163.119,60.865 L163.119,59.269 ZM154.077,112.321 L15.919,112.321 C15.547,112.321 15.245,112.020 15.245,111.648 L15.245,8.213 C15.245,7.841 15.547,7.540 15.919,7.540 L154.077,7.540 C154.450,7.540 154.752,7.841 154.752,8.213 L154.752,111.648 C154.752,112.020 154.450,112.321 154.077,112.321 ZM154.077,8.213 L15.919,8.213 L15.919,111.648 L154.077,111.648 L154.077,8.213 ZM8.298,61.008 C7.739,61.008 7.286,60.556 7.286,59.998 C7.286,59.440 7.739,58.988 8.298,58.988 C8.857,58.988 9.310,59.440 9.310,59.998 C9.310,60.556 8.857,61.008 8.298,61.008 ZM8.298,59.392 C7.963,59.392 7.691,59.664 7.691,59.998 C7.691,60.332 7.963,60.604 8.298,60.604 C8.633,60.604 8.906,60.332 8.906,59.998 C8.906,59.664 8.633,59.392 8.298,59.392 ZM8.324,62.352 C8.624,62.352 8.868,62.595 8.868,62.894 C8.868,63.193 8.624,63.435 8.324,63.435 C8.022,63.435 7.779,63.193 7.779,62.894 C7.779,62.595 8.022,62.352 8.324,62.352 Z"/>
</svg>