<svg 
 xmlns="http://www.w3.org/2000/svg"
 xmlns:xlink="http://www.w3.org/1999/xlink"
 width="72px" height="151px">
<path fill-rule="evenodd"  fill="rgb(34, 34, 34)"
 d="M69.401,147.340 C67.958,149.011 65.252,151.001 60.561,151.001 L59.862,151.001 L13.258,151.001 L12.559,151.001 C7.868,151.001 5.162,149.011 3.719,147.340 C2.067,145.429 1.119,142.842 1.119,140.241 L1.119,136.962 L1.119,57.535 L0.836,57.535 C0.457,57.535 -0.001,57.175 -0.001,56.728 L-0.001,47.066 C-0.001,46.654 0.394,46.263 0.811,46.263 L1.119,46.263 L1.119,43.692 L0.804,43.692 C0.398,43.692 -0.001,43.287 -0.001,42.873 L-0.001,33.288 C-0.001,32.879 0.418,32.464 0.829,32.464 L1.119,32.464 L1.119,29.353 L0.813,29.353 C0.364,29.353 -0.001,29.015 -0.001,28.600 L-0.001,22.390 C-0.001,21.976 0.364,21.638 0.813,21.638 L1.119,21.638 L1.119,15.344 L1.119,12.065 C1.119,9.464 2.067,6.877 3.719,4.965 C5.162,3.295 7.868,1.304 12.559,1.304 L13.258,1.304 L48.063,1.304 L48.063,0.907 C48.063,0.439 48.499,-0.003 48.960,-0.003 L59.623,-0.003 C60.089,-0.003 60.529,0.437 60.529,0.901 L60.529,1.304 L60.561,1.304 C65.252,1.304 67.958,3.295 69.401,4.965 C71.053,6.877 72.000,9.464 72.000,12.065 L72.000,15.344 L72.000,136.962 L72.000,140.241 C72.000,142.842 71.053,145.429 69.401,147.340 ZM1.119,22.202 L0.813,22.202 C0.701,22.202 0.610,22.286 0.610,22.390 L0.610,28.600 C0.610,28.704 0.701,28.788 0.813,28.788 L1.119,28.788 L1.119,22.202 ZM1.119,33.025 L0.829,33.025 C0.726,33.025 0.559,33.185 0.559,33.288 L0.559,42.873 C0.559,42.977 0.701,43.131 0.804,43.131 L1.119,43.131 L1.119,33.025 ZM1.119,46.825 L0.811,46.825 C0.709,46.825 0.559,46.963 0.559,47.066 L0.559,56.728 C0.559,56.831 0.733,56.973 0.836,56.973 L1.119,56.973 L1.119,46.825 ZM59.969,0.901 C59.969,0.745 59.778,0.559 59.623,0.559 L48.960,0.559 C48.806,0.559 48.622,0.750 48.622,0.907 L48.622,1.304 L59.862,1.304 L59.969,1.304 L59.969,0.901 ZM71.254,136.962 L71.254,15.344 L71.254,12.065 C71.254,9.642 70.373,7.233 68.837,5.455 C67.496,3.903 64.971,2.053 60.561,2.053 L59.862,2.053 L13.258,2.053 L12.559,2.053 C8.149,2.053 5.624,3.903 4.283,5.455 C2.747,7.233 1.866,9.642 1.866,12.065 L1.866,15.344 L1.866,136.962 L1.866,140.241 C1.866,142.664 2.747,145.073 4.282,146.850 C5.624,148.403 8.149,150.253 12.559,150.253 L13.258,150.253 L59.862,150.253 L60.561,150.253 C64.971,150.253 67.496,148.403 68.837,146.850 C70.373,145.073 71.254,142.664 71.254,140.241 L71.254,136.962 ZM68.015,145.959 C67.224,146.874 66.246,147.591 65.107,148.090 C63.819,148.656 62.320,148.942 60.654,148.942 L59.955,148.942 L13.352,148.942 L12.652,148.942 C10.986,148.942 9.488,148.656 8.199,148.090 C7.061,147.591 6.082,146.874 5.292,145.959 C3.944,144.399 3.171,142.281 3.171,140.147 L3.171,136.868 L3.171,15.255 L3.171,11.975 C3.171,9.841 3.944,7.723 5.292,6.163 C6.082,5.248 7.061,4.531 8.199,4.032 C9.488,3.467 10.986,3.180 12.652,3.180 L13.352,3.180 L59.955,3.180 L60.654,3.180 C62.320,3.180 63.819,3.467 65.107,4.032 C66.246,4.531 67.224,5.248 68.015,6.163 C69.362,7.723 70.135,9.841 70.135,11.975 L70.135,15.255 L70.135,136.868 L70.135,140.147 C70.135,142.281 69.362,144.399 68.015,145.959 ZM69.389,136.868 L69.389,15.255 L69.389,11.975 C69.389,10.019 68.683,8.079 67.451,6.654 C66.733,5.823 65.844,5.172 64.808,4.718 C63.615,4.194 62.217,3.929 60.654,3.929 L59.955,3.929 L13.352,3.929 L12.652,3.929 C11.089,3.929 9.692,4.194 8.498,4.718 C7.462,5.172 6.573,5.823 5.856,6.654 C4.624,8.079 3.917,10.019 3.917,11.975 L3.917,15.255 L3.917,136.868 L3.917,140.147 C3.917,142.103 4.624,144.043 5.856,145.469 C6.573,146.299 7.462,146.950 8.498,147.404 C9.692,147.928 11.089,148.194 12.652,148.194 L13.352,148.194 L59.955,148.194 L60.654,148.194 C62.217,148.194 63.615,147.928 64.808,147.404 C65.844,146.950 66.733,146.299 67.451,145.469 C68.683,144.043 69.389,142.103 69.389,140.147 L69.389,136.868 ZM66.404,130.042 L6.715,130.042 C6.303,130.042 5.969,129.707 5.969,129.294 L5.969,23.015 C5.969,22.601 6.303,22.266 6.715,22.266 L66.404,22.266 C66.816,22.266 67.151,22.601 67.151,23.015 L67.151,129.294 C67.151,129.707 66.816,130.042 66.404,130.042 ZM66.404,23.015 L6.715,23.015 L6.715,129.294 L66.404,129.294 L66.404,23.015 ZM41.643,16.089 L31.477,16.089 C30.679,16.089 30.031,15.419 30.031,14.592 C30.031,13.765 30.679,13.095 31.477,13.095 L41.643,13.095 C42.441,13.095 43.088,13.765 43.088,14.592 C43.088,15.419 42.441,16.089 41.643,16.089 ZM41.643,13.868 L31.477,13.868 C31.091,13.868 30.778,14.193 30.778,14.592 C30.778,14.992 31.091,15.317 31.477,15.317 L41.643,15.317 C42.029,15.317 42.342,14.992 42.342,14.592 C42.342,14.193 42.029,13.868 41.643,13.868 ZM36.560,10.521 C35.686,10.521 34.974,9.807 34.974,8.930 C34.974,8.053 35.686,7.340 36.560,7.340 C37.434,7.340 38.145,8.053 38.145,8.930 C38.145,9.807 37.434,10.521 36.560,10.521 ZM36.560,7.901 C35.994,7.901 35.534,8.363 35.534,8.930 C35.534,9.498 35.994,9.960 36.560,9.960 C37.126,9.960 37.586,9.498 37.586,8.930 C37.586,8.363 37.126,7.901 36.560,7.901 ZM36.560,9.524 C36.251,9.524 36.000,9.273 36.000,8.963 C36.000,8.653 36.251,8.401 36.560,8.401 C36.869,8.401 37.120,8.653 37.120,8.963 C37.120,9.273 36.869,9.524 36.560,9.524 ZM36.560,133.344 C40.166,133.344 43.088,136.277 43.088,139.895 C43.088,143.512 40.166,146.444 36.560,146.444 C32.954,146.444 30.031,143.512 30.031,139.895 C30.031,136.277 32.954,133.344 36.560,133.344 ZM36.560,145.696 C39.748,145.696 42.342,143.093 42.342,139.895 C42.342,136.696 39.748,134.093 36.560,134.093 C33.371,134.093 30.778,136.696 30.778,139.895 C30.778,143.093 33.371,145.696 36.560,145.696 ZM35.348,137.343 L37.959,137.343 C38.628,137.343 39.171,137.887 39.171,138.558 L39.171,141.175 C39.171,141.845 38.628,142.390 37.959,142.390 L35.348,142.390 C34.678,142.390 34.135,141.845 34.135,141.175 L34.135,138.558 C34.135,137.887 34.678,137.343 35.348,137.343 ZM34.881,141.175 C34.881,141.432 35.090,141.642 35.348,141.642 L37.959,141.642 C38.216,141.642 38.425,141.432 38.425,141.175 L38.425,138.558 C38.425,138.300 38.216,138.090 37.959,138.090 L35.348,138.090 C35.090,138.090 34.881,138.300 34.881,138.558 L34.881,141.175 Z"/>
</svg>