<svg 
 xmlns="http://www.w3.org/2000/svg"
 xmlns:xlink="http://www.w3.org/1999/xlink"
 width="228px" height="131px">
<path fill-rule="evenodd"  fill="rgb(34, 34, 34)"
 d="M227.792,128.132 C227.713,128.194 227.627,128.256 227.537,128.318 L227.536,128.318 C225.965,129.396 222.026,130.999 217.608,130.999 L10.392,130.999 C5.974,130.999 2.034,129.396 0.463,128.318 C0.463,128.318 0.463,128.318 0.463,128.318 C0.392,128.269 0.325,128.221 0.263,128.174 C-0.000,127.984 -0.000,127.691 -0.000,127.581 L-0.000,124.060 C-0.000,123.864 0.161,123.704 0.359,123.704 L21.467,123.704 C21.224,123.001 21.089,122.248 21.089,121.464 L21.089,6.896 C21.089,3.093 24.192,0.000 28.006,0.000 L200.024,0.000 C203.838,0.000 206.941,3.093 206.941,6.896 L206.941,121.464 C206.941,122.248 206.807,123.001 206.563,123.704 L227.638,123.704 C227.831,123.704 228.000,123.872 228.000,124.063 L228.000,127.630 C228.000,127.724 228.000,127.971 227.792,128.132 ZM10.392,130.521 L217.608,130.521 C221.347,130.521 224.723,129.351 226.544,128.360 L1.455,128.360 C3.277,129.351 6.653,130.521 10.392,130.521 ZM206.461,6.896 C206.461,3.357 203.574,0.478 200.024,0.478 L28.006,0.478 C24.456,0.478 21.569,3.357 21.569,6.896 L21.569,121.464 C21.569,122.252 21.715,123.006 21.977,123.704 L40.254,123.704 L40.278,123.599 L40.842,121.104 L24.604,121.104 C23.279,121.104 22.205,120.033 22.205,118.712 L22.205,107.561 L22.205,106.963 L22.205,6.812 C22.205,3.669 24.770,1.112 27.922,1.112 L200.107,1.112 C203.259,1.112 205.824,3.669 205.824,6.812 L205.824,106.963 L205.824,107.561 L205.824,118.712 C205.824,120.033 204.750,121.104 203.426,121.104 L186.635,121.104 L187.199,123.599 L187.223,123.704 L206.053,123.704 C206.315,123.006 206.461,122.252 206.461,121.464 L206.461,6.896 ZM130.130,123.704 L186.731,123.704 L186.147,121.119 L74.268,121.119 L66.786,121.119 L41.331,121.119 L40.746,123.704 L66.786,123.704 L74.268,123.704 L97.871,123.704 L130.130,123.704 ZM98.375,124.183 C98.516,124.953 99.275,126.265 100.619,126.265 L127.382,126.265 C128.726,126.265 129.485,124.953 129.626,124.183 L98.375,124.183 ZM203.426,120.626 C204.484,120.626 205.345,119.767 205.345,118.712 L205.345,107.561 L205.345,106.963 L205.345,6.812 C205.345,3.932 202.995,1.590 200.107,1.590 L27.922,1.590 C25.035,1.590 22.685,3.932 22.685,6.812 L22.685,106.963 L22.685,107.561 L22.685,118.712 C22.685,119.767 23.546,120.626 24.604,120.626 L203.426,120.626 ZM227.520,124.183 L187.331,124.183 L186.731,124.183 L130.112,124.183 C129.973,125.173 129.021,126.744 127.382,126.744 L100.619,126.744 C98.980,126.744 98.028,125.173 97.889,124.183 L74.268,124.183 L66.786,124.183 L40.746,124.183 L40.146,124.183 L0.479,124.183 L0.479,127.581 C0.479,127.716 0.503,127.757 0.548,127.790 C0.589,127.821 0.631,127.851 0.674,127.882 L227.325,127.882 C227.386,127.839 227.443,127.796 227.498,127.754 C227.518,127.739 227.520,127.676 227.520,127.630 L227.520,124.183 ZM27.344,7.409 L200.533,7.409 C200.864,7.409 201.132,7.677 201.132,8.007 L201.132,116.059 C201.132,116.389 200.864,116.658 200.533,116.658 L27.344,116.658 C27.013,116.658 26.744,116.389 26.744,116.059 L26.744,8.007 C26.744,7.677 27.013,7.409 27.344,7.409 ZM27.344,116.059 L200.533,116.059 L200.533,8.007 L27.344,8.007 L27.344,116.059 ZM114.046,5.750 C113.516,5.750 113.086,5.321 113.086,4.794 C113.086,4.265 113.516,3.837 114.046,3.837 C114.576,3.837 115.005,4.265 115.005,4.794 C115.005,5.321 114.576,5.750 114.046,5.750 ZM114.046,4.315 C113.782,4.315 113.566,4.529 113.566,4.794 C113.566,5.057 113.782,5.272 114.046,5.272 C114.310,5.272 114.526,5.057 114.526,4.794 C114.526,4.529 114.310,4.315 114.046,4.315 ZM149.182,130.236 C149.135,130.236 149.087,130.235 149.040,130.234 C148.374,130.216 147.988,130.094 147.891,129.871 C147.841,129.757 147.864,129.631 147.951,129.534 C148.224,129.228 149.201,129.212 149.394,129.212 C149.441,129.212 149.488,129.213 149.536,129.214 C150.201,129.232 150.588,129.354 150.685,129.577 C150.734,129.690 150.712,129.816 150.625,129.914 C150.352,130.220 149.375,130.236 149.182,130.236 ZM78.684,130.234 C78.637,130.235 78.589,130.236 78.542,130.236 L78.542,130.236 C78.349,130.236 77.372,130.220 77.099,129.914 C77.012,129.816 76.989,129.690 77.039,129.577 C77.136,129.354 77.523,129.232 78.188,129.214 C78.235,129.213 78.283,129.212 78.330,129.212 C78.523,129.212 79.500,129.228 79.773,129.534 C79.860,129.631 79.883,129.757 79.833,129.871 C79.736,130.094 79.350,130.216 78.684,130.234 Z"/>
</svg>