<svg 
 xmlns="http://www.w3.org/2000/svg"
 xmlns:xlink="http://www.w3.org/1999/xlink"
 width="14px" height="25px">
<path fill-rule="evenodd"  fill="rgb(34, 34, 34)"
 d="M3.792,13.333 L3.792,24.070 L9.143,24.070 L9.143,13.385 L12.796,13.385 L13.679,8.930 L9.181,8.930 C9.181,8.930 9.181,6.833 9.181,5.662 C9.181,5.210 9.428,4.607 10.177,4.607 C11.330,4.607 12.777,4.607 12.777,4.607 L12.777,0.070 C12.777,0.070 10.434,0.070 7.921,0.070 C6.247,0.070 3.773,2.084 3.773,4.225 C3.773,6.429 3.773,8.803 3.773,8.803 L0.966,8.803 L0.966,13.314 L3.792,13.333 Z"/>
</svg>