<svg 
 xmlns="http://www.w3.org/2000/svg"
 xmlns:xlink="http://www.w3.org/1999/xlink"
 width="24px" height="25px">
<path fill-rule="evenodd"  fill="rgb(34, 34, 34)"
 d="M5.427,3.112 C5.427,4.547 4.380,5.711 2.659,5.711 C1.039,5.711 -0.008,4.547 -0.008,3.112 C-0.008,1.641 1.074,0.512 2.727,0.512 C4.380,0.512 5.393,1.641 5.427,3.112 ZM0.128,24.491 L0.128,7.765 L5.259,7.765 L5.259,24.491 L0.128,24.491 ZM8.329,13.100 C8.329,11.014 8.262,9.269 8.193,7.765 L12.649,7.765 L12.887,10.091 L12.988,10.091 C13.663,8.995 15.317,7.388 18.086,7.388 C21.460,7.388 23.992,9.680 23.992,14.606 L23.992,24.492 L18.862,24.492 L18.862,15.222 C18.862,13.067 18.117,11.596 16.261,11.596 C14.844,11.596 14.001,12.588 13.629,13.546 C13.494,13.887 13.460,14.366 13.460,14.845 L13.460,24.492 L8.329,24.492 L8.329,13.100 Z"/>
</svg>