<svg 
 xmlns="http://www.w3.org/2000/svg"
 xmlns:xlink="http://www.w3.org/1999/xlink"
 width="25px" height="20px">
<path fill-rule="evenodd"  fill="rgb(34, 34, 34)"
 d="M24.492,2.628 C23.609,3.019 22.660,3.284 21.664,3.403 C22.681,2.794 23.462,1.829 23.829,0.680 C22.878,1.244 21.824,1.653 20.702,1.874 C19.805,0.917 18.525,0.320 17.108,0.320 C14.389,0.320 12.185,2.524 12.185,5.242 C12.185,5.628 12.228,6.004 12.312,6.365 C8.220,6.159 4.591,4.199 2.163,1.221 C1.739,1.948 1.496,2.794 1.496,3.696 C1.496,5.404 2.366,6.911 3.687,7.793 C2.880,7.767 2.120,7.547 1.457,7.178 C1.456,7.198 1.456,7.219 1.456,7.239 C1.456,9.624 3.153,11.614 5.406,12.066 C4.993,12.179 4.558,12.239 4.109,12.239 C3.791,12.239 3.483,12.208 3.182,12.151 C3.809,14.107 5.628,15.530 7.782,15.569 C6.097,16.890 3.974,17.677 1.667,17.677 C1.269,17.677 0.877,17.654 0.492,17.608 C2.671,19.005 5.259,19.820 8.040,19.820 C17.097,19.820 22.050,12.319 22.050,5.813 C22.050,5.599 22.045,5.388 22.035,5.177 C22.998,4.482 23.832,3.615 24.492,2.628 Z"/>
</svg>