<svg 
 xmlns="http://www.w3.org/2000/svg"
 xmlns:xlink="http://www.w3.org/1999/xlink"
 width="25px" height="22px">
<path fill-rule="evenodd"  fill="rgb(34, 34, 34)"
 d="M0.696,6.470 L1.681,7.764 C1.681,7.764 3.712,6.160 4.389,6.961 C5.066,7.764 7.651,17.449 8.514,19.236 C9.267,20.802 11.344,22.875 13.623,21.395 C15.899,19.916 23.471,13.439 24.826,5.790 C26.180,-1.856 15.715,-0.255 14.606,6.407 C17.377,4.741 18.856,7.084 17.438,9.738 C16.023,12.389 14.730,14.118 14.053,14.118 C13.377,14.118 12.857,12.345 12.082,9.243 C11.282,6.037 11.287,0.262 7.959,0.917 C4.821,1.534 0.696,6.470 0.696,6.470 Z"/>
</svg>