<svg 
 xmlns="http://www.w3.org/2000/svg"
 xmlns:xlink="http://www.w3.org/1999/xlink"
 width="25px" height="17px">
<path fill-rule="evenodd"  fill="rgb(34, 34, 34)"
 d="M10.154,7.530 C10.154,7.530 12.421,7.350 12.421,4.517 C12.421,1.685 10.566,0.302 8.218,0.302 L0.489,0.302 L0.489,16.132 L8.218,16.132 C8.218,16.132 12.935,16.289 12.935,11.461 C12.936,11.461 13.141,7.530 10.154,7.530 ZM3.895,3.115 L8.218,3.115 C8.218,3.115 9.268,3.115 9.268,4.762 C9.268,6.410 8.650,6.648 7.948,6.648 L3.895,6.648 L3.895,3.115 ZM7.999,13.319 L3.895,13.319 L3.895,9.088 L8.218,9.088 C8.218,9.088 9.784,9.066 9.784,11.261 C9.784,13.113 8.614,13.305 7.999,13.319 ZM19.229,4.330 C13.516,4.330 13.521,10.411 13.521,10.411 C13.521,10.411 13.129,16.461 19.229,16.461 C19.229,16.461 24.311,16.772 24.311,12.251 L21.698,12.251 C21.698,12.251 21.784,13.954 19.316,13.954 C19.316,13.954 16.701,14.140 16.701,11.201 L24.398,11.201 C24.400,11.202 25.242,4.330 19.229,4.330 ZM21.553,9.089 L16.674,9.089 C16.674,9.089 16.994,6.648 19.288,6.648 C21.580,6.648 21.553,9.089 21.553,9.089 ZM22.163,1.235 L16.033,1.235 L16.033,3.184 L22.161,3.184 L22.161,1.235 L22.163,1.235 Z"/>
</svg>