<svg 
 xmlns="http://www.w3.org/2000/svg"
 xmlns:xlink="http://www.w3.org/1999/xlink"
 width="64px" height="64px">
<path fill-rule="evenodd"  fill="rgb(255, 255, 255)"
 d="M31.998,64.002 C14.352,64.002 -0.005,49.645 -0.005,31.999 C-0.005,14.353 14.352,-0.005 31.998,-0.005 C49.645,-0.005 64.002,14.353 64.002,31.999 C64.002,49.645 49.645,64.002 31.998,64.002 ZM31.998,5.814 C17.560,5.814 5.814,17.561 5.814,31.998 C5.814,46.435 17.560,58.181 31.998,58.181 C46.437,58.181 58.184,46.436 58.184,31.999 C58.184,17.561 46.437,5.814 31.998,5.814 ZM27.632,23.269 L40.727,31.999 L27.632,40.728 L27.632,23.269 Z"/>
</svg>